<svg height='100px' width='100px'  fill="#000000" xmlns="http://www.w3.org/2000/svg" viewBox="0 0 100 100" x="0px" y="0px"><title>Sacred geometry RTE</title><g data-name="Layer 2"><path d="M50,4A46,46,0,1,0,96,50,46.00064,46.00064,0,0,0,50,4Zm9.42444,44.95148a9.31185,9.31185,0,0,1-4.42676-1.659,7.92292,7.92292,0,1,0,0-15.35449,9.38193,9.38193,0,1,1,6.34741,17.01349c-.31952.01867-.636.04846-.96032.04852S59.744,48.97015,59.42444,48.95148ZM59.38477,36.1543a2.46143,2.46143,0,1,1-2.46192-2.46192A2.46523,2.46523,0,0,1,59.38477,36.1543Zm-6.87439-.48a4.3988,4.3988,0,0,0-.04847.48,4.46143,4.46143,0,0,0,8.92286,0,4.40005,4.40005,0,0,0-.04841-.47925,5.92305,5.92305,0,1,1-8.826-.00073Zm7.87439-7.44385a11.38518,11.38518,0,0,0-9.44806,17.73724,16.421,16.421,0,0,1-2.08313-1.74414,16.30762,16.30762,0,1,1,23.06237,0,16.421,16.421,0,0,1-2.08313,1.74414,11.38518,11.38518,0,0,0-9.448-17.73724Zm0-13.8457a18.30762,18.30762,0,1,0,12.981,31.21362,26.68872,26.68872,0,1,1,0-25.81207A18.2497,18.2497,0,0,0,60.38477,14.38477ZM81.11261,81.11261A43.99988,43.99988,0,1,1,33.5498,9.19061a28.69238,28.69238,0,1,0,32.9004,0,44,44,0,0,1,14.66241,71.922Z"></path></g></svg>